<mxfile host="app.diagrams.net" agent="Mozilla/5.0 (Windows NT 10.0; Win64; x64) AppleWebKit/537.36 (KHTML, like Gecko) Chrome/131.0.0.0 Safari/537.36 Edg/131.0.0.0" version="26.0.1">
  <diagram name="Trang-1" id="IuFDKMT4Xuj64v9Usyn-">
    <mxGraphModel dx="1042" dy="565" grid="1" gridSize="10" guides="1" tooltips="1" connect="1" arrows="1" fold="1" page="1" pageScale="1" pageWidth="827" pageHeight="1169" math="0" shadow="0">
      <root>
        <mxCell id="0" />
        <mxCell id="1" parent="0" />
        <mxCell id="tQ4rAWnrCG4lGO1ITnVc-18" style="edgeStyle=orthogonalEdgeStyle;rounded=0;orthogonalLoop=1;jettySize=auto;html=1;exitX=0.5;exitY=1;exitDx=0;exitDy=0;entryX=0.5;entryY=0;entryDx=0;entryDy=0;" parent="1" source="tQ4rAWnrCG4lGO1ITnVc-1" target="tQ4rAWnrCG4lGO1ITnVc-2" edge="1">
          <mxGeometry relative="1" as="geometry" />
        </mxCell>
        <mxCell id="tQ4rAWnrCG4lGO1ITnVc-1" value="Khởi tạo cảm biến&lt;div&gt;ESP-NOW&lt;/div&gt;" style="ellipse;whiteSpace=wrap;html=1;" parent="1" vertex="1">
          <mxGeometry x="335" y="270" width="150" height="80" as="geometry" />
        </mxCell>
        <mxCell id="tQ4rAWnrCG4lGO1ITnVc-26" value="" style="edgeStyle=orthogonalEdgeStyle;rounded=0;orthogonalLoop=1;jettySize=auto;html=1;" parent="1" source="tQ4rAWnrCG4lGO1ITnVc-2" target="tQ4rAWnrCG4lGO1ITnVc-25" edge="1">
          <mxGeometry relative="1" as="geometry" />
        </mxCell>
        <mxCell id="tQ4rAWnrCG4lGO1ITnVc-2" value="Thu thập dữ liệu cảm biến" style="rounded=1;whiteSpace=wrap;html=1;arcSize=0;" parent="1" vertex="1">
          <mxGeometry x="350" y="390" width="120" height="60" as="geometry" />
        </mxCell>
        <mxCell id="tQ4rAWnrCG4lGO1ITnVc-22" value="" style="edgeStyle=orthogonalEdgeStyle;rounded=0;orthogonalLoop=1;jettySize=auto;html=1;" parent="1" source="tQ4rAWnrCG4lGO1ITnVc-19" target="tQ4rAWnrCG4lGO1ITnVc-21" edge="1">
          <mxGeometry relative="1" as="geometry">
            <Array as="points">
              <mxPoint x="410" y="670" />
              <mxPoint x="320" y="670" />
            </Array>
          </mxGeometry>
        </mxCell>
        <mxCell id="tQ4rAWnrCG4lGO1ITnVc-23" value="Có" style="edgeLabel;html=1;align=center;verticalAlign=middle;resizable=0;points=[];" parent="tQ4rAWnrCG4lGO1ITnVc-22" vertex="1" connectable="0">
          <mxGeometry x="0.0255" y="-2" relative="1" as="geometry">
            <mxPoint as="offset" />
          </mxGeometry>
        </mxCell>
        <mxCell id="tQ4rAWnrCG4lGO1ITnVc-31" value="" style="edgeStyle=orthogonalEdgeStyle;rounded=0;orthogonalLoop=1;jettySize=auto;html=1;" parent="1" source="tQ4rAWnrCG4lGO1ITnVc-19" target="tQ4rAWnrCG4lGO1ITnVc-30" edge="1">
          <mxGeometry relative="1" as="geometry" />
        </mxCell>
        <mxCell id="tQ4rAWnrCG4lGO1ITnVc-32" value="Không" style="edgeLabel;html=1;align=center;verticalAlign=middle;resizable=0;points=[];" parent="tQ4rAWnrCG4lGO1ITnVc-31" vertex="1" connectable="0">
          <mxGeometry x="-0.5586" y="2" relative="1" as="geometry">
            <mxPoint x="21" y="2" as="offset" />
          </mxGeometry>
        </mxCell>
        <mxCell id="tQ4rAWnrCG4lGO1ITnVc-19" value="Vượt ngưỡng?" style="rhombus;whiteSpace=wrap;html=1;rounded=1;arcSize=0;" parent="1" vertex="1">
          <mxGeometry x="315" y="570" width="190" height="80" as="geometry" />
        </mxCell>
        <mxCell id="uFXYqGWANXajmcdkT6Gh-1" style="edgeStyle=orthogonalEdgeStyle;rounded=0;orthogonalLoop=1;jettySize=auto;html=1;" edge="1" parent="1" source="tQ4rAWnrCG4lGO1ITnVc-21" target="tQ4rAWnrCG4lGO1ITnVc-28">
          <mxGeometry relative="1" as="geometry" />
        </mxCell>
        <mxCell id="tQ4rAWnrCG4lGO1ITnVc-21" value="Chuyển trạng thái đèn báo nguy hiểm, kích hoạt relay" style="whiteSpace=wrap;html=1;rounded=1;arcSize=0;" parent="1" vertex="1">
          <mxGeometry x="260" y="690" width="120" height="60" as="geometry" />
        </mxCell>
        <mxCell id="tQ4rAWnrCG4lGO1ITnVc-27" value="" style="edgeStyle=orthogonalEdgeStyle;rounded=0;orthogonalLoop=1;jettySize=auto;html=1;" parent="1" source="tQ4rAWnrCG4lGO1ITnVc-25" target="tQ4rAWnrCG4lGO1ITnVc-19" edge="1">
          <mxGeometry relative="1" as="geometry" />
        </mxCell>
        <mxCell id="tQ4rAWnrCG4lGO1ITnVc-25" value="Xử lý và&amp;nbsp;&lt;div&gt;kiểm tra điều kiện&amp;nbsp;&lt;/div&gt;" style="whiteSpace=wrap;html=1;rounded=1;arcSize=0;" parent="1" vertex="1">
          <mxGeometry x="350" y="480" width="120" height="60" as="geometry" />
        </mxCell>
        <mxCell id="tQ4rAWnrCG4lGO1ITnVc-34" value="" style="edgeStyle=orthogonalEdgeStyle;rounded=0;orthogonalLoop=1;jettySize=auto;html=1;" parent="1" source="tQ4rAWnrCG4lGO1ITnVc-28" target="tQ4rAWnrCG4lGO1ITnVc-33" edge="1">
          <mxGeometry relative="1" as="geometry" />
        </mxCell>
        <mxCell id="tQ4rAWnrCG4lGO1ITnVc-28" value="Lắng nghe thông báo gửi từ Gateway" style="whiteSpace=wrap;html=1;rounded=1;arcSize=0;" parent="1" vertex="1">
          <mxGeometry x="350" y="790" width="120" height="60" as="geometry" />
        </mxCell>
        <mxCell id="tQ4rAWnrCG4lGO1ITnVc-30" value="Chuyển trạng thái đèn an toàn, tắt relay" style="whiteSpace=wrap;html=1;rounded=1;arcSize=0;" parent="1" vertex="1">
          <mxGeometry x="440" y="690" width="120" height="60" as="geometry" />
        </mxCell>
        <mxCell id="tQ4rAWnrCG4lGO1ITnVc-36" value="" style="edgeStyle=orthogonalEdgeStyle;rounded=0;orthogonalLoop=1;jettySize=auto;html=1;" parent="1" source="tQ4rAWnrCG4lGO1ITnVc-33" target="tQ4rAWnrCG4lGO1ITnVc-35" edge="1">
          <mxGeometry relative="1" as="geometry" />
        </mxCell>
        <mxCell id="tQ4rAWnrCG4lGO1ITnVc-33" value="Đóng gói dữ liệu&amp;nbsp;&lt;div&gt;cảm biến&lt;/div&gt;" style="whiteSpace=wrap;html=1;rounded=1;arcSize=0;" parent="1" vertex="1">
          <mxGeometry x="350" y="880" width="120" height="60" as="geometry" />
        </mxCell>
        <mxCell id="tQ4rAWnrCG4lGO1ITnVc-38" value="" style="edgeStyle=orthogonalEdgeStyle;rounded=0;orthogonalLoop=1;jettySize=auto;html=1;" parent="1" source="tQ4rAWnrCG4lGO1ITnVc-35" target="tQ4rAWnrCG4lGO1ITnVc-37" edge="1">
          <mxGeometry relative="1" as="geometry" />
        </mxCell>
        <mxCell id="tQ4rAWnrCG4lGO1ITnVc-35" value="Gửi dữ liệu qua&amp;nbsp;&lt;div&gt;ESP-NOW&lt;/div&gt;" style="whiteSpace=wrap;html=1;rounded=1;arcSize=0;" parent="1" vertex="1">
          <mxGeometry x="350" y="970" width="120" height="60" as="geometry" />
        </mxCell>
        <mxCell id="tQ4rAWnrCG4lGO1ITnVc-39" style="edgeStyle=orthogonalEdgeStyle;rounded=0;orthogonalLoop=1;jettySize=auto;html=1;" parent="1" source="tQ4rAWnrCG4lGO1ITnVc-37" edge="1">
          <mxGeometry relative="1" as="geometry">
            <mxPoint x="410" y="370" as="targetPoint" />
            <Array as="points">
              <mxPoint x="410" y="1140" />
              <mxPoint x="720" y="1140" />
              <mxPoint x="720" y="370" />
            </Array>
          </mxGeometry>
        </mxCell>
        <mxCell id="tQ4rAWnrCG4lGO1ITnVc-37" value="Đợi 2 giây, quay trở lại chờ Gateway" style="whiteSpace=wrap;html=1;rounded=1;arcSize=0;" parent="1" vertex="1">
          <mxGeometry x="350" y="1060" width="120" height="60" as="geometry" />
        </mxCell>
        <mxCell id="tQ4rAWnrCG4lGO1ITnVc-41" value="" style="edgeStyle=orthogonalEdgeStyle;rounded=0;orthogonalLoop=1;jettySize=auto;html=1;" parent="1" source="tQ4rAWnrCG4lGO1ITnVc-40" target="tQ4rAWnrCG4lGO1ITnVc-1" edge="1">
          <mxGeometry relative="1" as="geometry" />
        </mxCell>
        <mxCell id="tQ4rAWnrCG4lGO1ITnVc-40" value="Bắt đầu" style="ellipse;whiteSpace=wrap;html=1;" parent="1" vertex="1">
          <mxGeometry x="350" y="160" width="120" height="80" as="geometry" />
        </mxCell>
        <mxCell id="uFXYqGWANXajmcdkT6Gh-2" style="edgeStyle=orthogonalEdgeStyle;rounded=0;orthogonalLoop=1;jettySize=auto;html=1;entryX=0.5;entryY=0;entryDx=0;entryDy=0;" edge="1" parent="1" source="tQ4rAWnrCG4lGO1ITnVc-30" target="tQ4rAWnrCG4lGO1ITnVc-28">
          <mxGeometry relative="1" as="geometry" />
        </mxCell>
      </root>
    </mxGraphModel>
  </diagram>
</mxfile>
